<?xml version="1.0" encoding="UTF-8" standalone="no"?>
<!-- Created with Inkscape (http://www.inkscape.org/) -->

<svg
   version="1.1"
   id="svg9"
   xml:space="preserve"
   width="579.42798"
   height="579.6427"
   viewBox="0 0 579.42798 579.6427"
   sodipodi:docname="Logo_Efrei-Poker.svg"
   inkscape:version="1.1.2 (b8e25be833, 2022-02-05)"
   xmlns:inkscape="http://www.inkscape.org/namespaces/inkscape"
   xmlns:sodipodi="http://sodipodi.sourceforge.net/DTD/sodipodi-0.dtd"
   xmlns="http://www.w3.org/2000/svg"
   xmlns:svg="http://www.w3.org/2000/svg"><defs
     id="defs13"><clipPath
       clipPathUnits="userSpaceOnUse"
       id="clipPath23"><path
         d="M 0,434.732 H 434.571 V 0 H 0 Z"
         id="path21" /></clipPath><clipPath
       clipPathUnits="userSpaceOnUse"
       id="clipPath119"><path
         d="M 0,434.732 H 434.571 V 0 H 0 Z"
         id="path117" /></clipPath></defs><sodipodi:namedview
     id="namedview11"
     pagecolor="#ffffff"
     bordercolor="#666666"
     borderopacity="1.0"
     inkscape:pageshadow="2"
     inkscape:pageopacity="0.0"
     inkscape:pagecheckerboard="0"
     showgrid="false"
     inkscape:zoom="1.2697477"
     inkscape:cx="289.42758"
     inkscape:cy="289.82136"
     inkscape:window-width="1920"
     inkscape:window-height="974"
     inkscape:window-x="-11"
     inkscape:window-y="-11"
     inkscape:window-maximized="1"
     inkscape:current-layer="g15" /><g
     id="g15"
     inkscape:groupmode="layer"
     inkscape:label="Logo_Efrei-Poker (1)"
     transform="matrix(1.3333333,0,0,-1.3333333,0,579.64267)"><g
       id="g17"><g
         id="g19"
         clip-path="url(#clipPath23)"><g
           id="g25"
           transform="translate(433.2459,217.4699)"><path
             d="m 0,0 c 0,-119.237 -96.66,-215.897 -215.897,-215.897 -119.236,0 -215.897,96.66 -215.897,215.897 0,119.237 96.661,215.897 215.897,215.897 C -96.66,215.897 0,119.237 0,0"
             style="fill:#ffffff;fill-opacity:1;fill-rule:nonzero;stroke:none"
             id="path27" /></g><g
           id="g29"
           transform="translate(433.2459,217.4699)"><path
             d="m 0,0 c 0,-119.237 -96.66,-215.897 -215.897,-215.897 -119.236,0 -215.897,96.66 -215.897,215.897 0,119.237 96.661,215.897 215.897,215.897 C -96.66,215.897 0,119.237 0,0 Z"
             style="fill:none;stroke:#231f20;stroke-width:2;stroke-linecap:butt;stroke-linejoin:miter;stroke-miterlimit:10;stroke-dasharray:none;stroke-opacity:1"
             id="path31" /></g><g
           id="g33"
           transform="translate(412.4277,217.4699)"><path
             d="m 0,0 c 0,-107.838 -87.42,-195.258 -195.258,-195.258 -107.837,0 -195.257,87.42 -195.257,195.258 0,107.838 87.42,195.258 195.257,195.258 C -87.42,195.258 0,107.838 0,0"
             style="fill:#ed1c24;fill-opacity:1;fill-rule:nonzero;stroke:none"
             id="path35" /></g><g
           id="g37"
           transform="translate(412.4277,217.4699)"><path
             d="m 0,0 c 0,-107.838 -87.42,-195.258 -195.258,-195.258 -107.837,0 -195.257,87.42 -195.257,195.258 0,107.838 87.42,195.258 195.257,195.258 C -87.42,195.258 0,107.838 0,0 Z"
             style="fill:none;stroke:#231f20;stroke-width:2;stroke-linecap:butt;stroke-linejoin:miter;stroke-miterlimit:10;stroke-dasharray:none;stroke-opacity:1"
             id="path39" /></g><g
           id="g41"
           transform="translate(362.5348,217.344)"><path
             d="m 0,0 c 0,-80.283 -65.082,-145.365 -145.365,-145.365 -80.282,0 -145.364,65.082 -145.364,145.365 0,80.283 65.082,145.365 145.364,145.365 C -65.082,145.365 0,80.283 0,0"
             style="fill:#ffffff;fill-opacity:1;fill-rule:nonzero;stroke:none"
             id="path43" /></g><g
           id="g45"
           transform="translate(362.5348,217.344)"><path
             d="m 0,0 c 0,-80.283 -65.082,-145.365 -145.365,-145.365 -80.282,0 -145.364,65.082 -145.364,145.365 0,80.283 65.082,145.365 145.364,145.365 C -65.082,145.365 0,80.283 0,0 Z"
             style="fill:none;stroke:#231f20;stroke-width:2;stroke-linecap:butt;stroke-linejoin:miter;stroke-miterlimit:10;stroke-dasharray:none;stroke-opacity:1"
             id="path47" /></g><g
           id="g49"
           transform="translate(286.7233,217.4699)"><path
             d="m 0,0 c 0,-38.314 -31.06,-69.374 -69.374,-69.374 -38.315,0 -69.374,31.06 -69.374,69.374 0,38.314 31.059,69.374 69.374,69.374 C -31.06,69.374 0,38.314 0,0"
             style="fill:#ed1c24;fill-opacity:1;fill-rule:nonzero;stroke:none"
             id="path51" /></g><g
           id="g53"
           transform="translate(286.7233,217.4699)"><path
             d="m 0,0 c 0,-38.314 -31.06,-69.374 -69.374,-69.374 -38.315,0 -69.374,31.06 -69.374,69.374 0,38.314 31.059,69.374 69.374,69.374 C -31.06,69.374 0,38.314 0,0 Z"
             style="fill:none;stroke:#231f20;stroke-width:2;stroke-linecap:butt;stroke-linejoin:miter;stroke-miterlimit:10;stroke-dasharray:none;stroke-opacity:1"
             id="path55" /></g><g
           id="g57"
           transform="translate(212.5969,195.8966)"><path
             d="m 0,0 c -5.75,-9.211 -11.5,-18.422 -17.25,-27.633 h 44.72 c -6.18,9.285 -12.36,18.57 -18.541,27.854 0.905,-0.982 6.742,-7.109 16.062,-7 7.645,0.09 13.067,4.285 15.529,6.899 0.104,0.109 0.49,0.522 0.964,1.101 0,10e-4 4.246,5.187 5.184,12 0.948,6.883 -3.315,13.29 -5.927,17 C 28.501,47.614 9.517,66.927 4.502,71.977 0.242,67.596 -18.979,47.7 -31.66,30.221 c -1.156,-1.592 -6.548,-9.191 -6.289,-17 0.21,-6.33 4.125,-11.615 4.409,-11.956 10e-4,-10e-4 10e-4,-10e-4 10e-4,-10e-4 0.405,-0.529 0.741,-0.913 0.855,-1.043 3.41,-3.858 9.469,-6.999 16.18,-7.07 C -7.108,-6.948 -1.097,-1.106 0,0"
             style="fill:#231f20;fill-opacity:1;fill-rule:nonzero;stroke:none"
             id="path59" /></g><g
           id="g61"
           transform="translate(212.5969,195.8966)"><path
             d="m 0,0 c -5.75,-9.211 -11.5,-18.422 -17.25,-27.633 h 44.72 c -6.18,9.285 -12.36,18.57 -18.541,27.854 0.905,-0.982 6.742,-7.109 16.062,-7 7.645,0.09 13.067,4.285 15.529,6.899 0.104,0.109 0.49,0.522 0.964,1.101 0,10e-4 4.246,5.187 5.184,12 0.948,6.883 -3.315,13.29 -5.927,17 C 28.501,47.614 9.517,66.927 4.502,71.977 0.242,67.596 -18.979,47.7 -31.66,30.221 c -1.156,-1.592 -6.548,-9.191 -6.289,-17 0.21,-6.33 4.125,-11.615 4.409,-11.956 10e-4,-10e-4 10e-4,-10e-4 10e-4,-10e-4 0.405,-0.529 0.741,-0.913 0.855,-1.043 3.41,-3.858 9.469,-6.999 16.18,-7.07 C -7.108,-6.948 -1.097,-1.106 0,0 Z"
             style="fill:none;stroke:#231f20;stroke-width:1;stroke-linecap:butt;stroke-linejoin:miter;stroke-miterlimit:10;stroke-dasharray:none;stroke-opacity:1"
             id="path63" /></g><g
           id="g65"
           transform="translate(164.6959,426.9005)"><path
             d="m 0,0 c 1.699,-6.654 3.397,-13.307 5.096,-19.961 12.056,2.99 28.134,5.766 47.156,5.788 19.262,0.022 35.524,-2.788 47.672,-5.806 1.673,6.69 3.346,13.38 5.019,20.07 C 91.731,3.53 73.711,6.83 52.225,6.786 30.964,6.743 13.123,3.441 0,0"
             style="fill:#231f20;fill-opacity:1;fill-rule:nonzero;stroke:none"
             id="path67" /></g><g
           id="g69"
           transform="translate(164.6959,426.9005)"><path
             d="m 0,0 c 1.699,-6.654 3.397,-13.307 5.096,-19.961 12.056,2.99 28.134,5.766 47.156,5.788 19.262,0.022 35.524,-2.788 47.672,-5.806 1.673,6.69 3.346,13.38 5.019,20.07 C 91.731,3.53 73.711,6.83 52.225,6.786 30.964,6.743 13.123,3.441 0,0 Z"
             style="fill:none;stroke:#231f20;stroke-width:1;stroke-linecap:butt;stroke-linejoin:miter;stroke-miterlimit:10;stroke-dasharray:none;stroke-opacity:1"
             id="path71" /></g></g></g><text
       transform="matrix(0.64069041,-0.76779932,-0.76779932,-0.64069041,109.2485,146.283)"
       style="font-variant:normal;font-weight:500;font-stretch:normal;font-size:47.9998px;font-family:Palatino-Roman;-inkscape-font-specification:Palatino-Roman;writing-mode:lr-tb;fill:#231f20;fill-opacity:1;fill-rule:nonzero;stroke:none"
       id="text75"><tspan
         x="0"
         y="0"
         id="tspan73">P</tspan></text><text
       transform="matrix(0.8950804,-0.44590478,-0.44590478,-0.8950804,142.9713,110.8425)"
       style="font-variant:normal;font-weight:500;font-stretch:normal;font-size:47.9997px;font-family:Palatino-Roman;-inkscape-font-specification:Palatino-Roman;writing-mode:lr-tb;fill:#231f20;fill-opacity:1;fill-rule:nonzero;stroke:none"
       id="text79"><tspan
         x="0"
         y="0"
         id="tspan77">O</tspan></text><text
       transform="matrix(0.99990822,-0.013548,-0.013548,-0.99990822,198.0651,89.2093)"
       style="font-variant:normal;font-weight:500;font-stretch:normal;font-size:47.9997px;font-family:Palatino-Roman;-inkscape-font-specification:Palatino-Roman;writing-mode:lr-tb;fill:#231f20;fill-opacity:1;fill-rule:nonzero;stroke:none"
       id="text83"><tspan
         x="0"
         y="0"
         id="tspan81">K</tspan></text><text
       transform="matrix(0.9219214,0.38737699,0.38737699,-0.9219214,253.4108,93.2702)"
       style="font-variant:normal;font-weight:500;font-stretch:normal;font-size:47.9998px;font-family:Palatino-Roman;-inkscape-font-specification:Palatino-Roman;writing-mode:lr-tb;fill:#231f20;fill-opacity:1;fill-rule:nonzero;stroke:none"
       id="text87"><tspan
         x="0"
         y="0"
         id="tspan85">E</tspan></text><text
       transform="matrix(0.70123255,0.71293261,0.71293261,-0.70123255,297.6138,116.0045)"
       style="font-variant:normal;font-weight:500;font-stretch:normal;font-size:47.9998px;font-family:Palatino-Roman;-inkscape-font-specification:Palatino-Roman;writing-mode:lr-tb;fill:#231f20;fill-opacity:1;fill-rule:nonzero;stroke:none"
       id="text91"><tspan
         x="0"
         y="0"
         id="tspan89">R</tspan></text><text
       transform="matrix(0.64485732,0.76430297,0.76430297,-0.64485732,142.545,261.0699)"
       style="font-variant:normal;font-weight:500;font-stretch:normal;font-size:48.0001px;font-family:Palatino-Roman;-inkscape-font-specification:Palatino-Roman;writing-mode:lr-tb;fill:#231f20;fill-opacity:1;fill-rule:nonzero;stroke:none"
       id="text95"><tspan
         x="0"
         y="0"
         id="tspan93">E</tspan></text><text
       transform="matrix(0.90337877,0.42884356,0.42884356,-0.90337877,168.6104,288.6895)"
       style="font-variant:normal;font-weight:500;font-stretch:normal;font-size:48px;font-family:Palatino-Roman;-inkscape-font-specification:Palatino-Roman;writing-mode:lr-tb;fill:#231f20;fill-opacity:1;fill-rule:nonzero;stroke:none"
       id="text99"><tspan
         x="0"
         y="0"
         id="tspan97">F</tspan></text><text
       transform="matrix(1,7.7083333e-5,7.7083333e-5,-1,201.1691,302.6216)"
       style="font-variant:normal;font-weight:500;font-stretch:normal;font-size:48px;font-family:Palatino-Roman;-inkscape-font-specification:Palatino-Roman;writing-mode:lr-tb;fill:#231f20;fill-opacity:1;fill-rule:nonzero;stroke:none"
       id="text103"><tspan
         x="0"
         y="0"
         id="tspan101">R</tspan></text><text
       transform="matrix(0.89761661,-0.44077706,-0.44077706,-0.89761661,241.6377,300.3781)"
       style="font-variant:normal;font-weight:500;font-stretch:normal;font-size:48px;font-family:Palatino-Roman;-inkscape-font-specification:Palatino-Roman;writing-mode:lr-tb;fill:#231f20;fill-opacity:1;fill-rule:nonzero;stroke:none"
       id="text107"><tspan
         x="0"
         y="0"
         id="tspan105">E</tspan></text><text
       transform="matrix(0.67681323,-0.73615478,-0.73615478,-0.67681323,274.5147,281.0007)"
       style="font-variant:normal;font-weight:500;font-stretch:normal;font-size:48.0001px;font-family:Palatino-Roman;-inkscape-font-specification:Palatino-Roman;writing-mode:lr-tb;fill:#231f20;fill-opacity:1;fill-rule:nonzero;stroke:none"
       id="text111"><tspan
         x="0"
         y="0"
         id="tspan109">I</tspan></text><g
       id="g113"><g
         id="g115"
         clip-path="url(#clipPath119)"><g
           id="g121"
           transform="translate(430.2263,251.1901)"><path
             d="m 0,0 c -6.788,-1.036 -13.577,-2.073 -20.365,-3.109 -1.958,12.266 -5.685,28.151 -13.098,45.669 -7.506,17.739 -16.446,31.611 -23.971,41.614 5.505,4.154 11.009,8.308 16.513,12.462 C -32.593,85.818 -22.514,70.52 -14.159,50.725 -5.891,31.137 -1.961,13.425 0,0"
             style="fill:#231f20;fill-opacity:1;fill-rule:nonzero;stroke:none"
             id="path123" /></g><g
           id="g125"
           transform="translate(430.2263,251.1901)"><path
             d="m 0,0 c -6.788,-1.036 -13.577,-2.073 -20.365,-3.109 -1.958,12.266 -5.685,28.151 -13.098,45.669 -7.506,17.739 -16.446,31.611 -23.971,41.614 5.505,4.154 11.009,8.308 16.513,12.462 C -32.593,85.818 -22.514,70.52 -14.159,50.725 -5.891,31.137 -1.961,13.425 0,0 Z"
             style="fill:none;stroke:#231f20;stroke-width:1;stroke-linecap:butt;stroke-linejoin:miter;stroke-miterlimit:10;stroke-dasharray:none;stroke-opacity:1"
             id="path127" /></g><g
           id="g129"
           transform="translate(3.7948,250.6154)"><path
             d="M 0,0 C 6.788,-1.036 13.577,-2.073 20.365,-3.109 22.323,9.157 26.05,25.042 33.463,42.56 40.969,60.299 49.909,74.171 57.434,84.174 51.929,88.328 46.425,92.482 40.921,96.636 32.593,85.818 22.514,70.52 14.159,50.725 5.891,31.137 1.961,13.425 0,0"
             style="fill:#231f20;fill-opacity:1;fill-rule:nonzero;stroke:none"
             id="path131" /></g><g
           id="g133"
           transform="translate(3.7948,250.6154)"><path
             d="M 0,0 C 6.788,-1.036 13.577,-2.073 20.365,-3.109 22.323,9.157 26.05,25.042 33.463,42.56 40.969,60.299 49.909,74.171 57.434,84.174 51.929,88.328 46.425,92.482 40.921,96.636 32.593,85.818 22.514,70.52 14.159,50.725 5.891,31.137 1.961,13.425 0,0 Z"
             style="fill:none;stroke:#231f20;stroke-width:1;stroke-linecap:butt;stroke-linejoin:miter;stroke-miterlimit:10;stroke-dasharray:none;stroke-opacity:1"
             id="path135" /></g><g
           id="g137"
           transform="translate(44.7596,87.6384)"><path
             d="M 0,0 C 5.507,4.102 11.014,8.204 16.522,12.306 24.01,2.395 34.757,-9.881 49.527,-21.868 64.482,-34.007 78.889,-42.057 90.228,-47.357 87.319,-53.609 84.409,-59.861 81.499,-66.113 69.067,-60.471 52.986,-51.695 36.316,-38.14 19.82,-24.727 8.034,-10.933 0,0"
             style="fill:#231f20;fill-opacity:1;fill-rule:nonzero;stroke:none"
             id="path139" /></g><g
           id="g141"
           transform="translate(44.7596,87.6384)"><path
             d="M 0,0 C 5.507,4.102 11.014,8.204 16.522,12.306 24.01,2.395 34.757,-9.881 49.527,-21.868 64.482,-34.007 78.889,-42.057 90.228,-47.357 87.319,-53.609 84.409,-59.861 81.499,-66.113 69.067,-60.471 52.986,-51.695 36.316,-38.14 19.82,-24.727 8.034,-10.933 0,0 Z"
             style="fill:none;stroke:#231f20;stroke-width:1;stroke-linecap:butt;stroke-linejoin:miter;stroke-miterlimit:10;stroke-dasharray:none;stroke-opacity:1"
             id="path143" /></g><g
           id="g145"
           transform="translate(389.6863,87.6384)"><path
             d="m 0,0 c -5.507,4.102 -11.014,8.204 -16.522,12.306 -7.488,-9.911 -18.235,-22.187 -33.005,-34.174 -14.955,-12.139 -29.362,-20.189 -40.701,-25.489 2.909,-6.252 5.819,-12.504 8.729,-18.756 12.432,5.642 28.513,14.418 45.183,27.973 C -19.82,-24.727 -8.034,-10.933 0,0"
             style="fill:#231f20;fill-opacity:1;fill-rule:nonzero;stroke:none"
             id="path147" /></g><g
           id="g149"
           transform="translate(389.6863,87.6384)"><path
             d="m 0,0 c -5.507,4.102 -11.014,8.204 -16.522,12.306 -7.488,-9.911 -18.235,-22.187 -33.005,-34.174 -14.955,-12.139 -29.362,-20.189 -40.701,-25.489 2.909,-6.252 5.819,-12.504 8.729,-18.756 12.432,5.642 28.513,14.418 45.183,27.973 C -19.82,-24.727 -8.034,-10.933 0,0 Z"
             style="fill:none;stroke:#231f20;stroke-width:1;stroke-linecap:butt;stroke-linejoin:miter;stroke-miterlimit:10;stroke-dasharray:none;stroke-opacity:1"
             id="path151" /></g><g
           id="g153"
           transform="translate(189.0219,375.6732)"><path
             d="m 0,0 c 7.77,1.405 17.191,2.515 27.905,2.554 10.942,0.039 20.552,-1.049 28.446,-2.446 1.014,3.958 2.027,7.916 3.041,11.874 -4.409,1.716 -8.817,3.432 -13.226,5.148 -1.505,-2.629 -3.01,-5.257 -4.515,-7.885 -2.234,0.016 -4.467,0.032 -6.7,0.048 2.278,4.441 4.556,8.881 6.834,13.322 -8.976,0.043 -17.952,0.087 -26.929,0.13 2.215,-4.433 4.43,-8.865 6.645,-13.298 -2.259,0.005 -4.517,0.01 -6.776,0.014 -1.6,2.649 -3.2,5.297 -4.8,7.946 C 5.361,15.759 0.797,14.112 -3.767,12.465 -2.511,8.31 -1.256,4.155 0,0"
             style="fill:#fff200;fill-opacity:1;fill-rule:nonzero;stroke:none"
             id="path155" /></g><g
           id="g157"
           transform="translate(189.0219,375.6732)"><path
             d="m 0,0 c 7.77,1.405 17.191,2.515 27.905,2.554 10.942,0.039 20.552,-1.049 28.446,-2.446 1.014,3.958 2.027,7.916 3.041,11.874 -4.409,1.716 -8.817,3.432 -13.226,5.148 -1.505,-2.629 -3.01,-5.257 -4.515,-7.885 -2.234,0.016 -4.467,0.032 -6.7,0.048 2.278,4.441 4.556,8.881 6.834,13.322 -8.976,0.043 -17.952,0.087 -26.929,0.13 2.215,-4.433 4.43,-8.865 6.645,-13.298 -2.259,0.005 -4.517,0.01 -6.776,0.014 -1.6,2.649 -3.2,5.297 -4.8,7.946 C 5.361,15.759 0.797,14.112 -3.767,12.465 -2.511,8.31 -1.256,4.155 0,0 Z"
             style="fill:none;stroke:#fff200;stroke-width:1;stroke-linecap:butt;stroke-linejoin:miter;stroke-miterlimit:10;stroke-dasharray:none;stroke-opacity:1"
             id="path159" /></g><g
           id="g161"
           transform="translate(351.1342,306.3987)"><path
             d="m 0,0 c 4.411,-6.616 9.224,-14.904 13.554,-24.842 4.325,-9.929 7.117,-19.088 8.959,-26.817 4.034,0.644 8.069,1.289 12.103,1.933 -0.179,4.727 -0.358,9.455 -0.537,14.182 -3.011,0.335 -6.021,0.671 -9.031,1.006 -0.873,2.056 -1.747,4.111 -2.62,6.167 4.98,-0.324 9.961,-0.648 14.941,-0.972 L 26.777,-4.584 c -3.186,-3.795 -6.372,-7.59 -9.557,-11.386 -0.895,2.075 -1.789,4.149 -2.683,6.223 l 5.381,7.564 C 16.592,1.349 13.265,4.881 9.938,8.414 6.625,5.609 3.313,2.805 0,0"
             style="fill:#fff200;fill-opacity:1;fill-rule:nonzero;stroke:none"
             id="path163" /></g><g
           id="g165"
           transform="translate(351.1342,306.3987)"><path
             d="m 0,0 c 4.411,-6.616 9.224,-14.904 13.554,-24.842 4.325,-9.929 7.117,-19.088 8.959,-26.817 4.034,0.644 8.069,1.289 12.103,1.933 -0.179,4.727 -0.358,9.455 -0.537,14.182 -3.011,0.335 -6.021,0.671 -9.031,1.006 -0.873,2.056 -1.747,4.111 -2.62,6.167 4.98,-0.324 9.961,-0.648 14.941,-0.972 L 26.777,-4.584 c -3.186,-3.795 -6.372,-7.59 -9.557,-11.386 -0.895,2.075 -1.789,4.149 -2.683,6.223 l 5.381,7.564 C 16.592,1.349 13.265,4.881 9.938,8.414 6.625,5.609 3.313,2.805 0,0 Z"
             style="fill:none;stroke:#fff200;stroke-width:1;stroke-linecap:butt;stroke-linejoin:miter;stroke-miterlimit:10;stroke-dasharray:none;stroke-opacity:1"
             id="path167" /></g><g
           id="g169"
           transform="translate(83.2622,306.3675)"><path
             d="m 0,0 c -4.414,-6.636 -9.219,-14.924 -13.554,-24.842 -4.331,-9.913 -7.148,-19.064 -9.02,-26.807 -4.014,0.641 -8.028,1.282 -12.042,1.923 0.179,4.727 0.358,9.455 0.537,14.182 3.011,0.335 6.021,0.671 9.031,1.006 0.873,2.056 1.747,4.111 2.62,6.167 -4.98,-0.324 -9.961,-0.648 -14.941,-0.972 l 10.592,24.759 c 3.186,-3.795 6.372,-7.59 9.557,-11.386 0.895,2.075 1.789,4.149 2.683,6.223 l -5.381,7.564 c 3.326,3.532 6.653,7.064 9.98,10.597 C -6.625,5.609 -3.313,2.805 0,0"
             style="fill:#fff200;fill-opacity:1;fill-rule:nonzero;stroke:none"
             id="path171" /></g><g
           id="g173"
           transform="translate(83.2622,306.3675)"><path
             d="m 0,0 c -4.414,-6.636 -9.219,-14.924 -13.554,-24.842 -4.331,-9.913 -7.148,-19.064 -9.02,-26.807 -4.014,0.641 -8.028,1.282 -12.042,1.923 0.179,4.727 0.358,9.455 0.537,14.182 3.011,0.335 6.021,0.671 9.031,1.006 0.873,2.056 1.747,4.111 2.62,6.167 -4.98,-0.324 -9.961,-0.648 -14.941,-0.972 l 10.592,24.759 c 3.186,-3.795 6.372,-7.59 9.557,-11.386 0.895,2.075 1.789,4.149 2.683,6.223 l -5.381,7.564 c 3.326,3.532 6.653,7.064 9.98,10.597 C -6.625,5.609 -3.313,2.805 0,0 Z"
             style="fill:none;stroke:#fff200;stroke-width:1;stroke-linecap:butt;stroke-linejoin:miter;stroke-miterlimit:10;stroke-dasharray:none;stroke-opacity:1"
             id="path175" /></g><g
           id="g177"
           transform="translate(138.9489,76.7556)"><path
             d="m 0,0 c -6.964,3.91 -15.014,9.099 -23.388,15.933 -8.372,6.833 -15.067,13.677 -20.293,19.715 -3.265,-2.389 -6.531,-4.779 -9.796,-7.168 2.314,-4.126 4.628,-8.252 6.942,-12.378 2.833,1.074 5.665,2.147 8.497,3.221 1.714,-1.432 3.429,-2.863 5.143,-4.294 -4.58,-1.982 -9.161,-3.964 -13.741,-5.946 6.904,-5.737 13.808,-11.473 20.713,-17.209 1.106,4.83 2.211,9.66 3.317,14.491 1.741,-1.439 3.482,-2.878 5.224,-4.316 -0.447,-3.062 -0.895,-6.124 -1.342,-9.185 4.571,-1.628 9.143,-3.255 13.714,-4.883 C -3.34,-8.013 -1.67,-4.006 0,0"
             style="fill:#fff200;fill-opacity:1;fill-rule:nonzero;stroke:none"
             id="path179" /></g><g
           id="g181"
           transform="translate(138.9489,76.7556)"><path
             d="m 0,0 c -6.964,3.91 -15.014,9.099 -23.388,15.933 -8.372,6.833 -15.067,13.677 -20.293,19.715 -3.265,-2.389 -6.531,-4.779 -9.796,-7.168 2.314,-4.126 4.628,-8.252 6.942,-12.378 2.833,1.074 5.665,2.147 8.497,3.221 1.714,-1.432 3.429,-2.863 5.143,-4.294 -4.58,-1.982 -9.161,-3.964 -13.741,-5.946 6.904,-5.737 13.808,-11.473 20.713,-17.209 1.106,4.83 2.211,9.66 3.317,14.491 1.741,-1.439 3.482,-2.878 5.224,-4.316 -0.447,-3.062 -0.895,-6.124 -1.342,-9.185 4.571,-1.628 9.143,-3.255 13.714,-4.883 C -3.34,-8.013 -1.67,-4.006 0,0 Z"
             style="fill:none;stroke:#fff200;stroke-width:1;stroke-linecap:butt;stroke-linejoin:miter;stroke-miterlimit:10;stroke-dasharray:none;stroke-opacity:1"
             id="path183" /></g><g
           id="g185"
           transform="translate(295.3018,76.7556)"><path
             d="m 0,0 c 6.978,3.928 15.02,9.12 23.388,15.933 8.369,6.814 15.085,13.638 20.347,19.675 3.248,-2.376 6.495,-4.752 9.742,-7.128 -2.314,-4.126 -4.628,-8.252 -6.942,-12.378 -2.833,1.074 -5.665,2.147 -8.497,3.221 -1.714,-1.432 -3.429,-2.863 -5.143,-4.294 4.58,-1.982 9.161,-3.964 13.741,-5.946 C 39.732,3.346 32.828,-2.39 25.923,-8.126 24.817,-3.296 23.712,1.534 22.606,6.365 20.865,4.926 19.124,3.487 17.382,2.049 17.829,-1.013 18.277,-4.075 18.724,-7.136 14.153,-8.764 9.581,-10.391 5.01,-12.019 3.34,-8.013 1.67,-4.006 0,0"
             style="fill:#fff200;fill-opacity:1;fill-rule:nonzero;stroke:none"
             id="path187" /></g><g
           id="g189"
           transform="translate(295.3018,76.7556)"><path
             d="m 0,0 c 6.978,3.928 15.02,9.12 23.388,15.933 8.369,6.814 15.085,13.638 20.347,19.675 3.248,-2.376 6.495,-4.752 9.742,-7.128 -2.314,-4.126 -4.628,-8.252 -6.942,-12.378 -2.833,1.074 -5.665,2.147 -8.497,3.221 -1.714,-1.432 -3.429,-2.863 -5.143,-4.294 4.58,-1.982 9.161,-3.964 13.741,-5.946 C 39.732,3.346 32.828,-2.39 25.923,-8.126 24.817,-3.296 23.712,1.534 22.606,6.365 20.865,4.926 19.124,3.487 17.382,2.049 17.829,-1.013 18.277,-4.075 18.724,-7.136 14.153,-8.764 9.581,-10.391 5.01,-12.019 3.34,-8.013 1.67,-4.006 0,0 Z"
             style="fill:none;stroke:#fff200;stroke-width:1;stroke-linecap:butt;stroke-linejoin:miter;stroke-miterlimit:10;stroke-dasharray:none;stroke-opacity:1"
             id="path191" /></g><g
           id="g193"
           transform="translate(194.2412,58.1178)"><path
             d="m 0,0 c 6.706,-0.953 14.5,-1.634 23.174,-1.62 8.875,0.014 16.829,0.751 23.648,1.762 0.958,-3.359 1.915,-6.718 2.873,-10.077 -3.723,-1.416 -7.445,-2.832 -11.167,-4.249 -1.251,2.223 -2.501,4.445 -3.751,6.668 -1.88,0 -3.76,0.001 -5.641,0.002 1.89,-3.753 3.779,-7.506 5.668,-11.259 -7.557,0.021 -15.114,0.042 -22.671,0.064 1.893,3.717 3.786,7.434 5.679,11.152 -1.901,0.01 -3.803,0.021 -5.704,0.031 -1.364,-2.219 -2.728,-4.438 -4.092,-6.658 -3.832,1.417 -7.663,2.833 -11.495,4.249 C -2.319,-6.623 -1.16,-3.312 0,0"
             style="fill:#fff200;fill-opacity:1;fill-rule:nonzero;stroke:none"
             id="path195" /></g><g
           id="g197"
           transform="translate(194.2412,58.1178)"><path
             d="m 0,0 c 6.706,-0.953 14.5,-1.634 23.174,-1.62 8.875,0.014 16.829,0.751 23.648,1.762 0.958,-3.359 1.915,-6.718 2.873,-10.077 -3.723,-1.416 -7.445,-2.832 -11.167,-4.249 -1.251,2.223 -2.501,4.445 -3.751,6.668 -1.88,0 -3.76,0.001 -5.641,0.002 1.89,-3.753 3.779,-7.506 5.668,-11.259 -7.557,0.021 -15.114,0.042 -22.671,0.064 1.893,3.717 3.786,7.434 5.679,11.152 -1.901,0.01 -3.803,0.021 -5.704,0.031 -1.364,-2.219 -2.728,-4.438 -4.092,-6.658 -3.832,1.417 -7.663,2.833 -11.495,4.249 C -2.319,-6.623 -1.16,-3.312 0,0 Z"
             style="fill:none;stroke:#fff200;stroke-width:1;stroke-linecap:butt;stroke-linejoin:miter;stroke-miterlimit:10;stroke-dasharray:none;stroke-opacity:1"
             id="path199" /></g><g
           id="g201"
           transform="translate(57.164,200.7955)"><path
             d="m 0,0 c 0.695,-6.728 1.92,-14.456 4.043,-22.877 2.171,-8.612 4.827,-16.146 7.47,-22.5 -3.038,-1.748 -6.075,-3.496 -9.112,-5.244 -2.276,3.268 -4.552,6.536 -6.828,9.805 1.854,1.751 3.707,3.503 5.56,5.254 -0.455,1.824 -0.909,3.649 -1.364,5.473 -3.184,-2.742 -6.367,-5.484 -9.551,-8.227 -1.81,7.337 -3.62,14.674 -5.43,22.012 4.065,-0.936 8.13,-1.873 12.195,-2.809 -0.45,1.848 -0.9,3.695 -1.351,5.543 -2.484,0.785 -4.967,1.571 -7.451,2.356 0.446,4.061 0.891,8.122 1.337,12.182 C -6.988,0.646 -3.494,0.323 0,0"
             style="fill:#fff200;fill-opacity:1;fill-rule:nonzero;stroke:none"
             id="path203" /></g><g
           id="g205"
           transform="translate(57.164,200.7955)"><path
             d="m 0,0 c 0.695,-6.728 1.92,-14.456 4.043,-22.877 2.171,-8.612 4.827,-16.146 7.47,-22.5 -3.038,-1.748 -6.075,-3.496 -9.112,-5.244 -2.276,3.268 -4.552,6.536 -6.828,9.805 1.854,1.751 3.707,3.503 5.56,5.254 -0.455,1.824 -0.909,3.649 -1.364,5.473 -3.184,-2.742 -6.367,-5.484 -9.551,-8.227 -1.81,7.337 -3.62,14.674 -5.43,22.012 4.065,-0.936 8.13,-1.873 12.195,-2.809 -0.45,1.848 -0.9,3.695 -1.351,5.543 -2.484,0.785 -4.967,1.571 -7.451,2.356 0.446,4.061 0.891,8.122 1.337,12.182 C -6.988,0.646 -3.494,0.323 0,0 Z"
             style="fill:none;stroke:#fff200;stroke-width:1;stroke-linecap:butt;stroke-linejoin:miter;stroke-miterlimit:10;stroke-dasharray:none;stroke-opacity:1"
             id="path207" /></g><g
           id="g209"
           transform="translate(377.0798,200.0952)"><path
             d="m 0,0 c -0.723,-6.725 -1.981,-14.448 -4.14,-22.859 -2.207,-8.603 -4.895,-16.126 -7.564,-22.469 3.029,-1.761 6.059,-3.522 9.089,-5.283 2.29,3.259 4.579,6.518 6.869,9.776 -1.846,1.76 -3.692,3.519 -5.538,5.278 0.463,1.823 0.925,3.645 1.388,5.467 3.172,-2.755 6.344,-5.511 9.516,-8.267 1.841,7.33 3.682,14.659 5.523,21.988 -4.069,-0.918 -8.138,-1.837 -12.207,-2.756 0.458,1.845 0.916,3.691 1.374,5.536 2.487,0.775 4.974,1.55 7.461,2.325 -0.428,4.063 -0.857,8.125 -1.285,12.188 C 6.991,0.616 3.495,0.308 0,0"
             style="fill:#fff200;fill-opacity:1;fill-rule:nonzero;stroke:none"
             id="path211" /></g><g
           id="g213"
           transform="translate(377.0798,200.0952)"><path
             d="m 0,0 c -0.723,-6.725 -1.981,-14.448 -4.14,-22.859 -2.207,-8.603 -4.895,-16.126 -7.564,-22.469 3.029,-1.761 6.059,-3.522 9.089,-5.283 2.29,3.259 4.579,6.518 6.869,9.776 -1.846,1.76 -3.692,3.519 -5.538,5.278 0.463,1.823 0.925,3.645 1.388,5.467 3.172,-2.755 6.344,-5.511 9.516,-8.267 1.841,7.33 3.682,14.659 5.523,21.988 -4.069,-0.918 -8.138,-1.837 -12.207,-2.756 0.458,1.845 0.916,3.691 1.374,5.536 2.487,0.775 4.974,1.55 7.461,2.325 -0.428,4.063 -0.857,8.125 -1.285,12.188 C 6.991,0.616 3.495,0.308 0,0 Z"
             style="fill:none;stroke:#fff200;stroke-width:1;stroke-linecap:butt;stroke-linejoin:miter;stroke-miterlimit:10;stroke-dasharray:none;stroke-opacity:1"
             id="path215" /></g><g
           id="g217"
           transform="translate(324.9513,336.7892)"><path
             d="m 0,0 c -5.025,4.527 -11.115,9.441 -18.335,14.266 -7.384,4.935 -14.405,8.746 -20.625,11.69 1.082,3.333 2.164,6.666 3.246,9.999 3.88,-0.899 7.759,-1.799 11.639,-2.699 -0.201,-2.542 -0.402,-5.084 -0.604,-7.626 1.561,-1.049 3.121,-2.098 4.681,-3.147 0.525,4.169 1.049,8.338 1.573,12.507 6.262,-4.231 12.523,-8.462 18.785,-12.694 -3.645,-2.03 -7.289,-4.061 -10.933,-6.091 1.573,-1.069 3.145,-2.138 4.718,-3.207 2.37,1.082 4.739,2.164 7.109,3.246 C 3.645,12.932 6.036,9.62 8.428,6.308 5.618,4.205 2.809,2.103 0,0"
             style="fill:#fff200;fill-opacity:1;fill-rule:nonzero;stroke:none"
             id="path219" /></g><g
           id="g221"
           transform="translate(324.9513,336.7892)"><path
             d="m 0,0 c -5.025,4.527 -11.115,9.441 -18.335,14.266 -7.384,4.935 -14.405,8.746 -20.625,11.69 1.082,3.333 2.164,6.666 3.246,9.999 3.88,-0.899 7.759,-1.799 11.639,-2.699 -0.201,-2.542 -0.402,-5.084 -0.604,-7.626 1.561,-1.049 3.121,-2.098 4.681,-3.147 0.525,4.169 1.049,8.338 1.573,12.507 6.262,-4.231 12.523,-8.462 18.785,-12.694 -3.645,-2.03 -7.289,-4.061 -10.933,-6.091 1.573,-1.069 3.145,-2.138 4.718,-3.207 2.37,1.082 4.739,2.164 7.109,3.246 C 3.645,12.932 6.036,9.62 8.428,6.308 5.618,4.205 2.809,2.103 0,0 Z"
             style="fill:none;stroke:#fff200;stroke-width:1;stroke-linecap:butt;stroke-linejoin:miter;stroke-miterlimit:10;stroke-dasharray:none;stroke-opacity:1"
             id="path223" /></g><g
           id="g225"
           transform="translate(109.5944,336.9202)"><path
             d="m 0,0 c 5.025,4.527 11.115,9.441 18.335,14.266 7.384,4.935 14.405,8.746 20.625,11.69 -1.082,3.333 -2.164,6.666 -3.246,9.999 -3.88,-0.899 -7.759,-1.799 -11.639,-2.699 0.201,-2.542 0.402,-5.084 0.604,-7.626 -1.561,-1.049 -3.121,-2.098 -4.681,-3.147 -0.525,4.169 -1.049,8.338 -1.573,12.507 C 12.163,30.759 5.902,26.528 -0.36,22.296 3.285,20.266 6.929,18.235 10.573,16.205 9,15.136 7.428,14.067 5.855,12.998 3.485,14.08 1.116,15.162 -1.254,16.244 -3.645,12.932 -6.036,9.62 -8.428,6.308 -5.618,4.205 -2.809,2.103 0,0"
             style="fill:#fff200;fill-opacity:1;fill-rule:nonzero;stroke:none"
             id="path227" /></g><g
           id="g229"
           transform="translate(109.5944,336.9202)"><path
             d="m 0,0 c 5.025,4.527 11.115,9.441 18.335,14.266 7.384,4.935 14.405,8.746 20.625,11.69 -1.082,3.333 -2.164,6.666 -3.246,9.999 -3.88,-0.899 -7.759,-1.799 -11.639,-2.699 0.201,-2.542 0.402,-5.084 0.604,-7.626 -1.561,-1.049 -3.121,-2.098 -4.681,-3.147 -0.525,4.169 -1.049,8.338 -1.573,12.507 C 12.163,30.759 5.902,26.528 -0.36,22.296 3.285,20.266 6.929,18.235 10.573,16.205 9,15.136 7.428,14.067 5.855,12.998 3.485,14.08 1.116,15.162 -1.254,16.244 -3.645,12.932 -6.036,9.62 -8.428,6.308 -5.618,4.205 -2.809,2.103 0,0 Z"
             style="fill:none;stroke:#fff200;stroke-width:1;stroke-linecap:butt;stroke-linejoin:miter;stroke-miterlimit:10;stroke-dasharray:none;stroke-opacity:1"
             id="path231" /></g></g></g></g></svg>
